<?xml version="1.0" encoding="utf-8"?>
<!-- Generator: Adobe Illustrator 27.3.1, SVG Export Plug-In . SVG Version: 6.00 Build 0)  -->
<svg version="1.1" id="Layer_1" xmlns="http://www.w3.org/2000/svg" xmlns:xlink="http://www.w3.org/1999/xlink" x="0px" y="0px"
	 viewBox="0 0 310.4 310.4" style="enable-background:new 0 0 310.4 310.4;" xml:space="preserve">
<style type="text/css">
	.st0{fill:#4FADEA;}
	.st1{fill:#FFFFFF;}
	.st2{display:none;}
	.st3{fill:#4FADEA;stroke:#4FADEA;stroke-miterlimit:10;}
</style>
<g>
	<path class="st0" d="M202.9,134c-0.4,0.2-0.6,0.3-0.8,0.4c-0.3-2.2-0.6-4.4-0.9-6.6c-0.1,0-0.2,0-0.4,0c-0.1,0.4-0.2,0.7-0.5,1.5
		c-0.3-1.7-0.5-3.1-0.7-4.5c-0.1,0-0.2,0-0.3,0c-0.1,0.2-0.2,0.5-0.3,0.7c-0.8-2-1.7-4.1-2.5-6.1c-0.2,0.1-0.4,0.2-0.6,0.3
		c-0.3-0.7-0.5-1.4-0.9-2.1c-0.2-0.4-0.6-0.7-0.9-1c-0.1-0.1-0.3-0.2-0.4-0.4c-0.6-1.6-1.6-2.8-3.1-3.7c-0.3-0.2-0.4-0.7-0.7-1
		c-0.3-0.3-0.7-0.6-1-0.9c-0.5-0.4-0.9-0.9-1.4-1.3c-0.2-0.2-0.3-0.4-0.5-0.6c-1.1-0.9-2.2-1.7-3.3-2.6c-2.7-2.3-5.9-3.9-9.1-5.5
		c-1-0.5-2.3-0.6-3.5-0.9c-0.3-0.1-0.6-0.2-0.8-0.6c0.4,0,0.7-0.1,1.1-0.1c0-0.1,0-0.2,0-0.3c-1.7-0.1-3.4-0.2-5.1-0.3
		c0-0.1,0-0.2,0-0.3c0.3-0.1,0.6-0.2,1-0.4c0-0.1,0-0.2,0-0.2c-0.5-0.1-0.9-0.2-1.4-0.2c-3.7-0.2-7.4-0.4-11.2-0.5
		c-3.6,0-7.4-0.2-10.9,0.5c-3.8,0.8-7.5,2.3-11.1,3.9c-4.2,1.8-7.8,4.5-11.2,7.5c-4.9,4.5-8.8,9.7-11.8,15.6
		c-2.3,4.6-3.6,9.5-4.1,14.5c-0.4,3.5-0.1,7.1,0,10.6c0.1,2.4,0.1,4.8,0.5,7.2c0.4,2.3,1.1,4.7,2.2,6.8c1.8,3.8,3.7,7.4,6,10.9
		c1.4,2.2,3.4,4.2,5.3,6.1c5.1,5.1,11,9,17.8,11.3c2.5,0.9,5.2,1.5,7.8,2.1c1.8,0.4,3.6,0.6,5.3,1c0.3,0.1,0.8,0.5,0.8,0.8
		c0,4.1-0.1,8.2-0.2,12.3c-0.1,5.1-0.1,10.1-0.1,15.2c0,1.7-0.1,3.5-0.1,5.2c0,0.7-0.3,1.1-1,1.1c-1.7,0.1-3.4,0.2-5.1,0.2
		c-7.8,0-15.6-0.1-23.4-0.1c-3.8,0-7.6-0.1-11.4-0.1c-1.3,0-1.8-0.6-2-1.7c-0.2-0.9-0.2-1.9-0.4-2.8c-0.8-6.2-3.3-11.7-7-16.7
		c-2.5-3.4-5.4-6.4-7.8-9.8c-5.1-7-9.1-14.5-11.8-22.8c-2.5-8-3.6-16.1-3.6-24.4c0-5.5,0.9-11,2.2-16.4c1.6-6.6,3.9-12.9,7.2-18.8
		c5.5-10,12.9-18.3,22.1-25.2c8.2-6.1,17.2-10.2,27-12.9c8-2.2,16.2-2.3,24.4-2c7,0.3,13.8,1.9,20.4,4.3c7.8,2.8,14.9,6.8,21.4,12
		c5.2,4.1,9.8,8.7,13.8,14c3.6,4.7,6.5,9.7,9,15c2.7,5.9,4.7,12.1,5.8,18.4c1.2,6.8,1.4,13.7,0.7,20.7c-1.1,11-4.7,21.1-10,30.6
		c-2.6,4.8-6,9.1-9.6,13.2c-4.8,5.5-8.2,11.7-9.8,18.9c-0.3,1.3-0.4,2.7-0.6,4.1c-0.2,1.8-0.8,2.5-2.6,2.6c-1.8,0.1-3.6,0.1-5.5,0.1
		c-5.5-0.1-11-0.2-16.6-0.3c-5.7-0.1-11.4-0.1-17.2-0.1c-1.2,0-1.4-0.5-1.4-1.6c0-6,0-12,0-18.1c0-4.7,0-9.5,0-14.2
		c0-0.8,0.3-0.9,1-1.1c3.9-0.7,8-1,11.7-2.3c7.5-2.8,14.3-6.8,19.9-12.8c3.5-3.8,6.3-8,8.8-12.4c0.9-1.6,1.6-3.3,2.1-5.1
		c1.1-3.7,2.4-7.3,2.3-11.3c-0.2-3.9,0-7.8-0.1-11.7C203.3,137.6,203.1,135.9,202.9,134z"/>
	<ellipse class="st0" cx="156.4" cy="144.4" rx="58.5" ry="50.5"/>
	<ellipse class="st1" cx="154.8" cy="145.9" rx="49.1" ry="49.2"/>
	<circle class="st0" cx="154.4" cy="145.8" r="42.8"/>
	<g>
		<path class="st0" d="M154.9,187.5c-16.8,0-33.8-5.6-33.8-16.3s17-16.3,33.8-16.3s33.8,5.6,33.8,16.3
			C188.7,181.9,171.7,187.5,154.9,187.5z"/>
		<path class="st1" d="M154.9,158.9c16.5,0,29.8,5.5,29.8,12.3s-13.4,12.3-29.8,12.3S125,178,125,171.2S138.4,158.9,154.9,158.9
			 M154.9,150.9c-9,0-17.6,1.5-24.1,4.2c-11.9,4.9-13.7,12.2-13.7,16.1s1.8,11.2,13.7,16.1c6.6,2.7,15.1,4.2,24.1,4.2
			s17.6-1.5,24.1-4.2c11.9-4.9,13.7-12.2,13.7-16.1s-1.8-11.2-13.7-16.1C172.4,152.4,163.8,150.9,154.9,150.9L154.9,150.9z"/>
	</g>
	<g>
		<path class="st0" d="M154.2,153.8c-8.3,0-15-6.8-15-15s6.8-15,15-15s15,6.8,15,15C169.3,147.1,162.5,153.8,154.2,153.8z"/>
		<path class="st1" d="M154.2,127.7c6.1,0,11,4.9,11,11s-4.9,11-11,11c-6.1,0-11-4.9-11-11C143.2,132.7,148.1,127.7,154.2,127.7
			 M154.2,119.7c-10.5,0-19,8.5-19,19s8.5,19,19,19s19-8.5,19-19S164.7,119.7,154.2,119.7L154.2,119.7z"/>
	</g>
	<path class="st2" d="M117.7,167.1c-0.3-1-0.4-1.9-0.8-2.5c-1.4-1.6-1.2-3.7-2.1-5.6c-0.2,0.4-0.4,0.6-0.6,0.9
		c-1.2-7.4-2.9-14.7-1.8-22.5c0.2,1,0.3,1.6,0.5,2.3c0.1,0,0.3,0.1,0.4,0.1c0-6.1,2.5-11.3,5.4-16.3c3.1-5.2,7.4-9.4,12.4-12.8
		c4.9-3.3,10.3-5.8,16.4-6.3c-0.5,0-1-0.1-1.6-0.1c11.9-1.8,23.1,0.1,32.9,7.3c9.8,7.1,15.7,16.6,17.1,29c0.1-0.6,0.1-1.1,0.1-1.6
		c0.1,0,0.1,0,0.2,0c0,4.1,0.2,8.2-0.1,12.3c-0.2,2.6-1.5,5-2,7.6c-0.4,2.4-1.8,4.2-2.5,6.4c-0.2,0.5-0.2,1-0.4,1.5
		c-0.1,0-0.2,0-0.3,0.1c-1-1.8-2-3.6-2.9-5.2c0-0.1,0,0.2,0,0.4c-0.1,0-0.2,0.1-0.3,0.1c-0.3-0.8-0.4-1.7-0.8-2.3
		c-0.8-1.1-2.1-2-2.6-3.3c-0.6-1.5-1.7-2.5-2.8-3.5c-0.8-0.8-1.7-1.6-2.9-1.9c-0.2-0.1-0.4-0.2-0.6-0.4c-1-0.8-2.1-1.6-3.1-2.4
		c0,0,0.1-0.2,0.3-0.5c-0.6-0.2-1.1-0.4-1.6-0.4c-1.1,0-1.4-0.6-1.4-1.5c0-1.6,0-3.2,0.2-4.7c0.3-3,0.4-6-0.6-8.9
		c-0.4-1.3-0.6-2.9-2.1-3.9c-1.1-0.7-1.7-2.1-2.7-2.9c-1.4-1.2-2.8-2.4-4.3-3.4c-0.5-0.4-1.3-0.5-2-0.6c-0.7-0.1-1.6,0.1-1.9-0.9
		c-0.1-0.2-0.6-0.3-0.9-0.3c-2,0-4.1-0.4-6.1,0c-4.4,0.8-8.4,2.7-11.4,6.2c-2.7,3-4.4,6.4-4.1,10.6c0.1,2.4,0.2,4.8,0.3,7.2
		c0,0.7-0.1,1.5-0.2,2.2c0,0.2-0.2,0.5-0.4,0.6c-4.2,2.1-7.8,4.8-10.7,8.5c-1.7,2.1-3.1,4.3-4.6,6.5c-0.3,0.5-0.4,1.2-0.7,1.7
		c-0.3,0.5-0.7,1-1.1,1.5C118.5,165.7,118.2,166.3,117.7,167.1z"/>
	<path class="st0" d="M154.4,264.1c-10.8,0-21.7,0-32.5,0c-2.9,0-5.9-0.5-8.4-2.2c-3.3-2.2-5.1-5.3-5.2-9.3
		c-0.1-4.2-0.1-8.4-0.2-12.6c0-0.5,0.1-1.1,0.1-1.6c0-0.9,0.5-1.2,1.4-1.3c0.7,0,1.3-0.1,2-0.1c27.3,0,54.7,0.1,82,0.1
		c1.9,0,3.7-0.1,5.6-0.1c0.9,0,1.4,0.3,1.3,1.3c-0.1,4.8,0.1,9.6-0.1,14.3c-0.2,5.9-4.8,10.5-10.6,11.1c-1.7,0.2-3.5,0.3-5.2,0.3
		c-8.8,0-17.6,0-26.4,0C157,264.1,155.7,264.1,154.4,264.1z"/>
	<path class="st2" d="M124.2,172.2c0.1,0.4,0.2,0.8,0.2,0.9c0.7-1.9,1.3-4.1,2.2-6.1c2.6-5.5,6.6-9.6,11.7-12.9
		c0.3-0.2,0.6-0.3,0.8-0.5c1.5-1.2,2.4-1.1,3.9,0c3.9,2.6,8.1,4.1,13,3.8c3.5-0.2,6.6-1.5,9.2-3.6c2-1.6,3.3-0.9,4.9,0.1
		c6,3.7,10.5,8.7,13.2,15.2c0.3,0.6,0.5,1.3,0.6,2c0.1,0.6,0,1.3,0,2.2c0.4-0.5,0.6-0.7,0.9-1c0.8,1.6,0.6,2.3-0.7,3.2
		c-1.6,1.2-3,2.6-4.6,3.8c-4.4,3.5-9.5,5.6-14.8,7.1c-1.5,0.4-3.1,0.3-4.7,0.5c-0.5,0.1-0.9,0.5-1.4,0.7c-0.5,0.2-1,0.6-1.6,0.6
		c-3.4-0.2-6.7-0.3-10-0.8c-1.9-0.2-3.7-0.9-5.6-1.4c0.4-0.2,0.8-0.3,1.1-0.4c-0.1-0.1-0.1-0.2-0.2-0.2c-2,0.1-3.8-0.3-5.5-1.6
		c-0.8-0.7-2.1-0.7-3.1-1.1c-0.7-0.4-1.3-1-2-1.5c-0.8-0.6-1.7-1-2.5-1.5c-0.3-0.4-0.5-0.9-0.8-1c-1.3-0.6-2.5-1.2-3.2-2.6
		c-0.1-0.2-0.3-0.4-0.5-0.6C123.5,174.6,123.4,174,124.2,172.2z"/>
	<path class="st0" d="M154.7,271.4c7.9,0,15.7,0,23.5,0c1.1,0,2.2,0.1,3.2,0.2c0.3,0,0.8,0.5,0.8,0.7c0,3.1,0.3,6.3-0.1,9.4
		c-0.6,5.2-5.1,8.9-10.7,9c-5.3,0.1-10.5,0-15.8,0c-4.9,0-9.9,0.2-14.8,0.2c-3.5,0-7-0.1-9.9-2.4c-2.2-1.7-3.7-3.8-3.9-6.5
		s-0.4-5.5-0.5-8.3c-0.1-1.5,0.3-1.9,1.8-2.1c0.8-0.1,1.6-0.2,2.5-0.2C138.7,271.4,146.7,271.4,154.7,271.4z"/>
	<path class="st2" d="M165.8,138.8c-0.1,1.1,0.1,2.6-0.5,3.4c-1.3,1.8-2,4.1-4.1,5.5c-3.3,2.1-6.7,2.4-10.4,1.6
		c-0.5-0.1-1.1-0.2-1.6-0.4c-0.2-0.1-0.4-0.1-0.6-0.2c-1.6-1.6-3.7-2.7-4.5-4.9c-0.9-2.4-1.4-4.9-0.7-7.4c1-3.5,2.6-6.8,6.5-7.9
		c6-1.6,10.9-0.8,14.1,4.4C165.1,134.7,165.9,136.6,165.8,138.8z"/>
	<path class="st2" d="M154.5,313.2c-4.7,0.1-11.6-3.7-12.9-10.2c-0.2-0.8-0.4-1.6-0.6-2.4c-0.2-0.9,0.1-1.6,1.2-1.6
		c1.9,0,3.8-0.1,5.7-0.1c5.9,0,11.8,0,17.7,0c1.8,0,2.1,0.3,1.9,2.1c-0.3,4.6-2.8,7.9-6.6,10.2C158.4,312.7,156.8,313.2,154.5,313.2
		z"/>
	<path class="st3" d="M40.8,148.5c4.4,0,8.7-0.1,13.1,0.1c1,0,2.2,0.4,2.8,1c2.1,2.3,1.1,4.3-1.6,5.5c-0.8,0.3-1.7,0.4-2.6,0.4
		c-7.6,0-15.2,0-22.8,0c-1,0-2-0.2-3-0.4c-1.8-0.4-3.5-2.1-3.3-3.4c0.2-1.7,2-3.2,4.1-3.2C32,148.5,36.4,148.5,40.8,148.5z"/>
	<path class="st3" d="M273.9,148.5c4.4,0,8.7-0.1,13.1,0.1c1,0,2.2,0.4,2.8,1c2.1,2.3,1.1,4.3-1.6,5.5c-0.8,0.3-1.7,0.4-2.6,0.4
		c-7.6,0-15.2,0-22.8,0c-1,0-2-0.2-3-0.4c-1.8-0.4-3.5-2.1-3.3-3.4c0.2-1.7,2-3.2,4.1-3.2C265,148.5,269.4,148.5,273.9,148.5z"/>
	<path class="st3" d="M221.8,81.8c0.3-0.5,0.7-1.4,1.3-2c4.3-4.2,8.6-8.4,12.9-12.7c2.1-2,4.1-4.1,6.1-6.2c0.3-0.3,0.6-0.7,1-1
		c1.4-1.3,2.6-1.4,3.9-0.4c1.5,1.3,1.9,2.8,0.6,4.2c-1.9,2.3-4.1,4.5-6.2,6.6c-4.3,4.4-8.7,8.7-13,13c-0.3,0.3-0.7,0.6-1,0.9
		c-2,1.7-4.8,0.8-5.4-1.8C221.9,82.5,221.9,82.3,221.8,81.8z"/>
	<path class="st3" d="M87.4,80.9c0.1,1.8-0.6,2.7-1.8,3.3c-1.2,0.6-2.3,0.6-3.3-0.2c-0.8-0.7-1.6-1.4-2.4-2.2
		C74.4,76.3,69,70.8,63.5,65.4c-0.6-0.6-1.3-1.3-1.8-2c-1.1-1.5-1-2.4,0.4-3.8c1.1-1.1,2.8-1.3,3.9-0.3c1.1,0.9,2.1,2,3.1,3
		c2.3,2.3,4.6,4.7,6.9,7c3.6,3.6,7.2,7.1,10.8,10.7C87.2,80.2,87.3,80.8,87.4,80.9z"/>
	<path class="st3" d="M151.7,38.3c0-4.3,0-8.6,0-13c0-1.5,0.6-2.6,1.9-3.4c1.2-0.7,2.4-0.5,3,0.7c0.4,0.8,0.8,1.7,0.8,2.6
		c0.1,3.1,0,6.1,0.1,9.2c0.1,5.5,0.3,11,0.4,16.6c0,0.6,0,1.2-0.1,1.7c-0.3,2.1-1,2.8-2.7,2.7c-2.3-0.1-3.3-0.9-3.3-3
		C151.6,47.7,151.7,43,151.7,38.3z"/>
</g>
</svg>
