<svg width="99" height="34" viewBox="0 0 99 34" fill="none" xmlns="http://www.w3.org/2000/svg">
<path d="M90.7113 8.40509V9.30182H89.4938V13H88.3745V9.30182H87.1571V8.40509H90.7113ZM96.4766 8.40509V13H95.3574V10.2444L94.3297 13H93.4265L92.3923 10.2378V13H91.273V8.40509H92.5952L93.8846 11.5862L95.161 8.40509H96.4766Z" fill="white"/>
<path d="M1.032 19.4C1.032 18.04 1.304 16.856 1.848 15.848C2.392 14.824 3.144 14.032 4.104 13.472C5.08 12.912 6.192 12.632 7.44 12.632C9.056 12.632 10.384 13.024 11.424 13.808C12.48 14.592 13.176 15.68 13.512 17.072H11.16C10.936 16.272 10.496 15.64 9.84 15.176C9.2 14.712 8.4 14.48 7.44 14.48C6.192 14.48 5.184 14.912 4.416 15.776C3.648 16.624 3.264 17.832 3.264 19.4C3.264 20.984 3.648 22.208 4.416 23.072C5.184 23.936 6.192 24.368 7.44 24.368C8.4 24.368 9.2 24.144 9.84 23.696C10.48 23.248 10.92 22.608 11.16 21.776H13.512C13.16 23.12 12.456 24.2 11.4 25.016C10.344 25.816 9.024 26.216 7.44 26.216C6.192 26.216 5.08 25.936 4.104 25.376C3.144 24.816 2.392 24.024 1.848 23C1.304 21.976 1.032 20.776 1.032 19.4ZM22.1621 26.216C20.9301 26.216 19.8101 25.936 18.8021 25.376C17.8101 24.816 17.0261 24.024 16.4501 23C15.8901 21.96 15.6101 20.76 15.6101 19.4C15.6101 18.056 15.8981 16.872 16.4741 15.848C17.0661 14.808 17.8661 14.016 18.8741 13.472C19.8821 12.912 21.0101 12.632 22.2581 12.632C23.5061 12.632 24.6341 12.912 25.6421 13.472C26.6501 14.016 27.4421 14.8 28.0181 15.824C28.6101 16.848 28.9061 18.04 28.9061 19.4C28.9061 20.76 28.6021 21.96 27.9941 23C27.4021 24.024 26.5941 24.816 25.5701 25.376C24.5461 25.936 23.4101 26.216 22.1621 26.216ZM22.1621 24.296C22.9461 24.296 23.6821 24.112 24.3701 23.744C25.0581 23.376 25.6101 22.824 26.0261 22.088C26.4581 21.352 26.6741 20.456 26.6741 19.4C26.6741 18.344 26.4661 17.448 26.0501 16.712C25.6341 15.976 25.0901 15.432 24.4181 15.08C23.7461 14.712 23.0181 14.528 22.2341 14.528C21.4341 14.528 20.6981 14.712 20.0261 15.08C19.3701 15.432 18.8421 15.976 18.4421 16.712C18.0421 17.448 17.8421 18.344 17.8421 19.4C17.8421 20.472 18.0341 21.376 18.4181 22.112C18.8181 22.848 19.3461 23.4 20.0021 23.768C20.6581 24.12 21.3781 24.296 22.1621 24.296ZM33.9617 8.24V26H31.7777V8.24H33.9617ZM43.4199 26.216C42.1879 26.216 41.0679 25.936 40.0599 25.376C39.0679 24.816 38.2839 24.024 37.7079 23C37.1479 21.96 36.8679 20.76 36.8679 19.4C36.8679 18.056 37.1559 16.872 37.7319 15.848C38.3239 14.808 39.1239 14.016 40.1319 13.472C41.1399 12.912 42.2679 12.632 43.5159 12.632C44.7639 12.632 45.8919 12.912 46.8999 13.472C47.9079 14.016 48.6999 14.8 49.2759 15.824C49.8679 16.848 50.1639 18.04 50.1639 19.4C50.1639 20.76 49.8599 21.96 49.2519 23C48.6599 24.024 47.8519 24.816 46.8279 25.376C45.8039 25.936 44.6679 26.216 43.4199 26.216ZM43.4199 24.296C44.2039 24.296 44.9399 24.112 45.6279 23.744C46.3159 23.376 46.8679 22.824 47.2839 22.088C47.7159 21.352 47.9319 20.456 47.9319 19.4C47.9319 18.344 47.7239 17.448 47.3079 16.712C46.8919 15.976 46.3479 15.432 45.6759 15.08C45.0039 14.712 44.2759 14.528 43.4919 14.528C42.6919 14.528 41.9559 14.712 41.2839 15.08C40.6279 15.432 40.0999 15.976 39.6999 16.712C39.2999 17.448 39.0999 18.344 39.0999 19.4C39.0999 20.472 39.2919 21.376 39.6759 22.112C40.0759 22.848 40.6039 23.4 41.2599 23.768C41.9159 24.12 42.6359 24.296 43.4199 24.296ZM55.2195 14.984C55.6035 14.232 56.1475 13.648 56.8515 13.232C57.5715 12.816 58.4435 12.608 59.4675 12.608V14.864H58.8915C56.4435 14.864 55.2195 16.192 55.2195 18.848V26H53.0355V12.848H55.2195V14.984ZM62.6846 26.144C62.2686 26.144 61.9166 26 61.6286 25.712C61.3406 25.424 61.1966 25.072 61.1966 24.656C61.1966 24.24 61.3406 23.888 61.6286 23.6C61.9166 23.312 62.2686 23.168 62.6846 23.168C63.0846 23.168 63.4206 23.312 63.6926 23.6C63.9806 23.888 64.1246 24.24 64.1246 24.656C64.1246 25.072 63.9806 25.424 63.6926 25.712C63.4206 26 63.0846 26.144 62.6846 26.144ZM68.7317 11.216C68.0117 11.216 67.4197 11.008 66.9557 10.592C66.5077 10.16 66.2837 9.632 66.2837 9.008C66.2837 8.368 66.5077 7.84 66.9557 7.424C67.4197 6.992 68.0117 6.776 68.7317 6.776C69.4357 6.776 70.0117 6.992 70.4597 7.424C70.9237 7.84 71.1557 8.368 71.1557 9.008C71.1557 9.632 70.9237 10.16 70.4597 10.592C70.0117 11.008 69.4357 11.216 68.7317 11.216ZM70.7717 12.608V26H66.6677V12.608H70.7717ZM79.8418 26.192C78.5298 26.192 77.3458 25.912 76.2898 25.352C75.2498 24.792 74.4258 23.992 73.8178 22.952C73.2258 21.912 72.9298 20.696 72.9298 19.304C72.9298 17.928 73.2338 16.72 73.8418 15.68C74.4498 14.624 75.2818 13.816 76.3378 13.256C77.3938 12.696 78.5778 12.416 79.8898 12.416C81.2018 12.416 82.3858 12.696 83.4418 13.256C84.4978 13.816 85.3298 14.624 85.9378 15.68C86.5458 16.72 86.8498 17.928 86.8498 19.304C86.8498 20.68 86.5378 21.896 85.9138 22.952C85.3058 23.992 84.4658 24.792 83.3938 25.352C82.3378 25.912 81.1538 26.192 79.8418 26.192ZM79.8418 22.64C80.6258 22.64 81.2898 22.352 81.8338 21.776C82.3938 21.2 82.6738 20.376 82.6738 19.304C82.6738 18.232 82.4018 17.408 81.8578 16.832C81.3298 16.256 80.6738 15.968 79.8898 15.968C79.0898 15.968 78.4258 16.256 77.8978 16.832C77.3698 17.392 77.1058 18.216 77.1058 19.304C77.1058 20.376 77.3618 21.2 77.8738 21.776C78.4018 22.352 79.0578 22.64 79.8418 22.64Z" fill="white"/>
</svg>
