<svg width="150" height="24" xmlns="http://www.w3.org/2000/svg" viewBox="0 0 150 24" class="h-4 lg:h-6 fill-current text-blue"><path d="M55.422 23.569V.207h19.875v6.031h-9.905a1.442 1.442 0 000 2.887h9.905v5.64h-10.01a1.337 1.337 0 000 2.676h10.01v6.128H55.422zm67.769-.002v-7.635h-4.636c-1.39 0-2.517-.2-2.517-2.136V.27h-10.381v23.297h17.534zM49.722 11.33a.652.652 0 01-.087-.89c.786-1.013 1.407-2.242 1.404-3.868-.005-2.417-.886-4.087-2.694-5.104C46.878.643 44.82.26 41.87.266H29.019v23.296h13.298c2.972-.005 5.295-.593 6.904-1.748 1.781-1.277 2.682-3.232 2.677-5.81-.004-1.995-.906-3.567-2.176-4.673zm-9.892 7.218h-.067a2.635 2.635 0 01-1.858-.822 2.64 2.64 0 01-.733-1.896 2.639 2.639 0 012.714-2.594 2.635 2.635 0 011.858.822 2.64 2.64 0 01.733 1.896 2.639 2.639 0 01-2.647 2.594zm0-7.816h-.067a2.635 2.635 0 01-1.858-.822 2.64 2.64 0 01-.733-1.896 2.639 2.639 0 012.714-2.594 2.635 2.635 0 011.858.822c.489.513.75 1.186.733 1.896a2.639 2.639 0 01-2.647 2.594zm57.901 3.707c-.341-.092-.415-.581.205-.876 2.236-1.337 3.451-3.091 3.451-5.69 0-6.74-5.709-7.604-10.682-7.604h-11.06v23.297h9.125v-5.92h1.127c2.835 0 3.597 3.058 3.597 5.92h9.095c-.001-5.65-1.642-8.262-4.858-9.127zm-7.82-2.945l-.075-.001a2.935 2.935 0 01-2.07-.915 2.942 2.942 0 01-.816-2.112 2.94 2.94 0 013.023-2.89c.79.02 1.524.344 2.07.916.544.572.834 1.322.816 2.112a2.94 2.94 0 01-2.948 2.89zM22.025 3.125C19.685 1.103 16.627-.007 12.949 0c-3.607.006-6.867 1.129-9.18 3.16C1.298 5.33-.005 8.396 0 12.023c.007 3.628 1.321 6.688 3.801 8.85 2.32 2.023 5.584 3.133 9.19 3.127 3.678-.007 6.733-1.128 9.066-3.159 2.487-2.164 3.798-5.23 3.791-8.865-.006-3.635-1.328-6.695-3.823-8.85zm-9.1 12.648A3.77 3.77 0 019.154 12a3.77 3.77 0 013.77-3.773A3.77 3.77 0 0116.691 12a3.77 3.77 0 01-3.768 3.773zM146.177 3.125c-2.34-2.022-5.398-3.132-9.076-3.125-3.607.006-6.866 1.128-9.179 3.16-2.473 2.17-3.776 5.236-3.77 8.863.007 3.627 1.321 6.688 3.802 8.85 2.32 2.023 5.584 3.133 9.19 3.127 3.678-.007 6.732-1.129 9.065-3.159 2.487-2.164 3.798-5.23 3.791-8.865-.006-3.635-1.328-6.695-3.823-8.85zm-9.101 12.648A3.77 3.77 0 01133.308 12a3.77 3.77 0 013.768-3.773A3.771 3.771 0 01140.845 12a3.771 3.771 0 01-3.769 3.773z"></path></svg>